<svg width="15" height="26" viewBox="0 0 15 26" fill="none" xmlns="http://www.w3.org/2000/svg">
<path d="M0.120283 12.9638C0.134183 12.4912 0.30099 12.0881 0.676305 11.7266L11.5187 1.12051C11.8107 0.814697 12.1999 0.661791 12.6447 0.661791C13.5482 0.661791 14.2572 1.35682 14.2572 2.26036C14.2572 2.70517 14.0765 3.10829 13.7706 3.428L3.99854 12.9638L13.7706 22.4996C14.0765 22.8054 14.2572 23.2085 14.2572 23.6533C14.2572 24.5708 13.5482 25.2658 12.6447 25.2658C12.1999 25.2658 11.8107 25.1129 11.5187 24.8071L0.676305 14.2009C0.30099 13.8395 0.120283 13.4364 0.120283 12.9638Z" fill="#62467D"/>
</svg>
