<svg width="40" height="35" viewBox="0 0 40 35" fill="none" xmlns="http://www.w3.org/2000/svg">
<path fill-rule="evenodd" clip-rule="evenodd" d="M18.5507 0.317922C19.2438 -0.105974 20.1317 -0.105974 20.8248 0.317922L38.403 11.0679C39.3842 11.668 39.6705 12.9145 39.0425 13.8522C38.4146 14.7898 37.11 15.0634 36.1288 14.4633L34.4534 13.4387V29.5625C34.4534 32.531 31.935 34.9375 28.8284 34.9375H10.5471C7.44053 34.9375 4.92213 32.531 4.92213 29.5625V13.4387L3.2467 14.4633C2.26548 15.0634 0.960954 14.7898 0.33297 13.8522C-0.295015 12.9145 -0.00865608 11.668 0.97257 11.0679L18.5507 0.317922ZM12.6565 19.8203C12.6565 20.8135 13.0666 21.7152 13.7337 22.3792L18.6803 27.2307C19.2324 27.7721 20.143 27.7721 20.695 27.2305L25.5417 22.4752C26.2677 21.8035 26.719 20.8622 26.719 19.8203C26.719 17.7794 24.9876 16.125 22.8518 16.125C21.5439 16.125 20.3876 17.5013 19.6878 18.451C18.9879 17.5013 17.8316 16.125 16.5237 16.125C14.3879 16.125 12.6565 17.7794 12.6565 19.8203Z" fill="#62467D"/>
</svg>
